<svg width="400" height="400" fill="none" xmlns="http://www.w3.org/2000/svg"><path d="M10 160v-24.896l50.415-49.793L10 34.896V10h24.896l50.415 50.415L135.104 10H160v24.896l-50.415 50.415L160 135.104V160h-24.896l-49.793-50.415L34.896 160H10Z" fill="#FF005D"/><path d="M240 160v-24.896l50.415-49.793L240 34.896V10h24.896l50.415 50.415L365.104 10H390v24.896l-50.415 50.415L390 135.104V160h-24.896l-49.793-50.415L264.896 160H240Z" fill="#FFC000"/><path d="M10 390v-24.896l50.415-49.793L10 264.896V240h24.896l50.415 50.415L135.104 240H160v24.896l-50.415 50.415L160 365.104V390h-24.896l-49.793-50.415L34.896 390H10Z" fill="#06B0D7"/><path d="M240 390v-24.896l50.415-49.793L240 264.896V240h24.896l50.415 50.415L365.104 240H390v24.896l-50.415 50.415L390 365.104V390h-24.896l-49.793-50.415L264.896 390H240Z" fill="#673AB7"/></svg>